# AST/ASF file generated using VICON BodyLanguage
# -----------------------------------------------
:version 1.10
:name VICON
:units
  mass 1.0
  length 0.45
  angle deg
:documentation
   .ast/.asf automatically generated from VICON data using
   VICON BodyBuilder and BodyLanguage model FoxedUp or BRILLIANT.MOD
:root
   order TX TY TZ RX RY RZ
   axis XYZ
   position 0 0 0  
   orientation 0 0 0 
:bonedata
  begin
     id 1 
     name lhipjoint
     direction 0.630305 -0.712092 0.309259 
     length 2.29033 
     axis 0 0 0  XYZ
  end
  begin
     id 2 
     name lfemur
     direction 0.34202 -0.939693 0  
     length 6.43538  
     axis 0 0 20  XYZ
    dof rx ry rz
    limits (-160.0 20.0)
           (-70.0 70.0)
           (-60.0 70.0)
  end
  begin
     id 3 
     name ltibia
     direction 0.34202 -0.939693 0   
     length 7.43097   
     axis 0 0 20   XYZ
    dof rx
    limits (-10.0 170.0)
  end
  begin
     id 4 
     name lfoot
     direction 0.0334653 -0.0919451 0.995202   
     length 1.78438   
     axis -90 7.62852e-016 20   XYZ
    dof rx rz
    limits (-45.0 90.0)
           (-70.0 20.0)
  end
  begin
     id 5 
     name ltoes
     direction 1.53535e-011 -4.21933e-011 1   
     length 0.90832   
     axis -90 7.62852e-016 20   XYZ
    dof rx
    limits (-90.0 20.0)
  end
  begin
     id 6 
     name rhipjoint
     direction -0.682059 -0.67077 0.291312   
     length 2.43143  
     axis 0 0 0  XYZ 
  end
  begin
     id 7 
     name rfemur
     direction -0.34202 -0.939693 0   
     length 6.63488   
     axis 0 0 -20   XYZ
    dof rx ry rz
    limits (-160.0 20.0)
           (-70.0 70.0)
           (-70.0 60.0)
  end
  begin
     id 8 
     name rtibia
     direction -0.34202 -0.939693 0   
     length 6.86532   
     axis 0 0 -20   XYZ
    dof rx
    limits (-10.0 170.0)
 end
 begin
     id 9 
     name rfoot
     direction -0.105199 -0.289033 0.951521   
     length 1.77126  
     axis -90 -7.62852e-016 -20   XYZ
    dof rx rz
    limits (-45.0 90.0)
           (-20.0 70.0)
  end
  begin
     id 10 
     name rtoes
     direction -1.53551e-011 -4.21978e-011 1   
     length 0.889273   
     axis -90 -7.62852e-016 -20   XYZ
    dof rx
    limits (-90.0 20.0)
  end
  begin
     id 11 
     name lowerback
     direction -0.0514305 0.998089 0.034245   
     length 2.02077   
     axis 0 0 0   XYZ
    dof rx ry rz
    limits (-20.0 45.0)
           (-30.0 30.0)
           (-30.0 30.0)
  end
  begin
     id 12 
     name upperback
     direction 0.0203189 0.999449 -0.0262315   
     length 2.01413   
     axis 0 0 0   XYZ
    dof rx ry rz
    limits (-20.0 45.0)
           (-30.0 30.0)
           (-30.0 30.0)
  end
  begin
     id 13 
     name thorax
     direction 0.0452736 0.998142 -0.0407729   
     length 2.02986   
     axis 0 0 0   XYZ
    dof rx ry rz
    limits (-20.0 45.0)
           (-30.0 30.0)
           (-30.0 30.0)
  end
  begin
     id 14 
     name lowerneck
     direction -0.0180464 0.999645 -0.0195774   
     length 1.59034   
     axis 0 0 0   XYZ
    dof rx ry rz
    limits (-20.0 45.0)
           (-30.0 30.0)
           (-30.0 30.0)
  end
  begin
     id 15 
     name upperneck
     direction 0.0732272 0.979935 -0.18538   
     length 1.57486   
     axis 0 0 0   XYZ
    dof rx ry rz
    limits (-20.0 45.0)
           (-30.0 30.0)
           (-30.0 30.0)
  end
  begin
     id 16
     name head
     direction 0.0252963 0.997909 -0.059472  
     length 1.60334  
     axis 0 0 0   XYZ
    dof rx ry rz
    limits (-20.0 45.0)
           (-30.0 30.0)
           (-30.0 30.0)
  end
  begin
     id 17 
     name lclavicle
     direction 0.943819 0.330449 0.00315172  
     length 3.50322  
     axis 0 0 0   XYZ
    dof ry rz
    limits (-20.0 10.0)
           (0.0 20.0)
  end
  begin
     id 18 
     name lhumerus
     direction 1 -4.48949e-011 2.22502e-028   
     length 4.63208   
     axis 180 -30 -90   XYZ
    dof rx ry rz
    limits (-60.0 90.0)
           (-90.0 90.0)
           (-90.0 90.0)
  end
  begin
     id 19
     name lradius
     direction 1 -4.48967e-011 -4.10197e-027   
     length 3.41924   
     axis 180 -30 -90   XYZ
    dof rx
    limits (-10.0 170.0)
  end
  begin
     id 20
     name lwrist
     direction 1 -4.48987e-011 -1.24264e-027   
     length 1.70962   
     axis 2.50585e-015 90 90   XYZ
    dof ry
    limits (-180.0 0.0)
 end
  begin
     id 21 
     name lhand
     direction 1 -4.48983e-011 -2.48528e-027   
     length 0.62537   
     axis 1.58582e-015 90 90   XYZ
    dof rx rz
    limits (-90.0 90.0)
           (-45.0 45.0)
  end
  begin
     id 22 
     name lfingers
     direction 1 -4.48896e-011 -4.97056e-027   
     length 0.50419   
     axis 3.17164e-015 90 90   XYZ
    dof rx
    limits (0.0 90.0)
  end
  begin
     id 23
     name lthumb
     direction 0.707107 -6.34803e-011 0.707107   
     length 0.723919   
     axis -90 45 2.85299e-015   XYZ
    dof rx rz
    limits (-45.0 45.0)
           (-45.0 45.0)
  end
  begin
     id 24 
     name rclavicle
     direction -0.964499 0.260664 -0.0423695   
     length 3.91997  
     axis 0 0 0   XYZ 
    dof ry rz
    limits (-10.0 20.0)
           (-20.0 0.0)
  end
  begin
     id 25 
     name rhumerus
     direction -1 -4.48957e-011 -1.98656e-027  
     length 4.4064   
     axis 180 30 90   XYZ
    dof rx ry rz
    limits (-90.0 60.0)
           (-90.0 90.0)
           (-90.0 90.0)
  end
  begin
     id 26 
     name rradius
     direction -1 -4.48968e-011 1.96972e-027   
     length 3.44675   
     axis 180 30 90   XYZ
    dof rx
    limits (-10.0 170.0)
  end
  begin
     id 27 
     name rwrist
     direction -1 -4.48974e-011 -1.24264e-027   
     length 1.72338   
     axis 2.50585e-015 -90 -90   XYZ
    dof ry
    limits (-180.0 0.0)
  end
  begin
     id 28
     name rhand
     direction -1 -4.48901e-011 -2.48528e-027   
     length 0.513674   
     axis 1.58582e-015 -90 -90   XYZ
    dof rx rz
    limits (-90.0 90.0)
           (-45.0 45.0)
  end
  begin
     id 29
     name rfingers
     direction -1 -4.48946e-011 -4.97056e-027   
     length 0.414137   
     axis 3.17164e-015 -90 -90   XYZ
    dof rx
    limits (0.0 90.0)
  end
  begin
     id 30
     name rthumb
     direction -0.707107 -6.34859e-011 0.707107   
     length 0.59462   
     axis -90 -45 -2.85299e-015   XYZ
    dof rx rz
    limits (-45.0 45.0)
           (-45.0 45.0)
  end
:hierarchy
  begin
    root lhipjoint rhipjoint lowerback
    lhipjoint lfemur
    lfemur ltibia
    ltibia lfoot
    lfoot ltoes
    rhipjoint rfemur
    rfemur rtibia
    rtibia rfoot
    rfoot rtoes
    lowerback upperback
    upperback thorax
    thorax lowerneck lclavicle rclavicle
    lowerneck upperneck
    upperneck head
    lclavicle lhumerus
    lhumerus lradius
    lradius lwrist
    lwrist lhand lthumb
    lhand lfingers
    rclavicle rhumerus
    rhumerus rradius
    rradius rwrist
    rwrist rhand rthumb
    rhand rfingers
  end

#!OML:ASF E:\inclinewalkrobotboard\Project 1\Capture day 1\Session 1\subject1.ASF
:FULLY-SPECIFIED
:DEGREES
116
root 10.4957 16.6675 22.8816 -163.209 3.56272 179.385
lowerback 5.57369 1.51246 -3.11381
upperback 3.73283 2.11183 1.36118
thorax 0.565308 1.08888 3.04137
lowerneck -4.24668 0.560653 -3.58963
upperneck 18.5056 -0.159921 1.64254
head 6.30243 -0.578782 1.06989
rclavicle 1.59028e-015 -7.55382e-015
rhumerus -31.0881 -10.221 -81.8361
rradius 41.9634
rwrist 3.97969
rhand -24.3577 -37.7864
rfingers 7.12502
rthumb 2.13187 -67.7555
lclavicle 1.59028e-015 -7.55382e-015
lhumerus -33.5424 20.9112 72.4248
lradius 14.2898
lwrist -42.5334
lhand -34.5986 -20.5537
lfingers 7.12502
lthumb -7.75734 9.28399
rfemur -16.8176 10.1418 13.4867
rtibia 34.31
rfoot -28.9805 -4.63288
rtoes -39.1623
lfemur -44.0171 -5.23922 -8.8844
ltibia 45.2014
lfoot -21.893 16.5687
ltoes -68.3277
117
root 10.4436 16.6795 22.5413 -163.375 3.14339 179.71
lowerback 5.0221 1.94625 -3.23086
upperback 3.62662 2.68262 1.3215
thorax 0.715831 1.36401 3.05226
lowerneck -4.56958 0.215174 -3.73899
upperneck 18.5729 -0.632375 1.93974
head 6.39409 -0.783302 1.15891
rclavicle 5.1684e-015 6.75868e-015
rhumerus -29.6208 -9.10749 -82.5452
rradius 43.3123
rwrist 4.35083
rhand -23.1117 -37.8131
rfingers 7.12502
rthumb 3.33526 -67.7667
lclavicle 5.1684e-015 6.75868e-015
lhumerus -36.628 25.724 66.847
lradius 12.5927
lwrist -48.3199
lhand -34.4998 -20.421
lfingers 7.12502
lthumb -7.66198 9.42019
rfemur -14.832 9.99352 13.8829
rtibia 33.504
rfoot -28.0182 -4.0139
rtoes -39.1848
lfemur -43.5758 -5.77778 -8.14705
ltibia 41.1142
lfoot -20.126 17.0578
ltoes -68.7383
118
root 10.3862 16.6871 22.1877 -163.49 2.77089 179.891
lowerback 4.69252 2.34321 -3.68306
upperback 3.20425 3.16032 1.25382
thorax 0.407668 1.59195 3.21342
lowerneck -4.52548 -0.0540766 -3.87969
upperneck 18.697 -1.06823 2.31177
head 6.44057 -0.979866 1.27148
rclavicle -8.74653e-015 -1.78906e-014
rhumerus -28.7426 -7.58679 -83.2128
rradius 44.4864
rwrist 3.96422
rhand -22.3047 -38.3492
rfingers 7.12502
rthumb 4.11449 -68.2892
lclavicle -8.74653e-015 -1.78906e-014
lhumerus -41.2196 31.0039 59.3237
lradius 11.113
lwrist -55.4598
lhand -34.4362 -20.1503
lfingers 7.12502
lthumb -7.6006 9.6931
rfemur -12.9361 9.62514 14.0538
rtibia 32.7339
rfoot -27.1012 -3.12263
rtoes -38.4465
lfemur -42.9649 -6.37384 -7.63731
ltibia 37.0546
lfoot -18.1453 16.056
ltoes -67.3371
119
root 10.3191 16.6914 21.8317 -163.577 2.63081 180.024
lowerback 4.07672 2.84749 -4.13058
upperback 3.01096 3.81339 1.00323
thorax 0.486496 1.90494 3.19744
lowerneck -4.7809 -0.438889 -3.71265
upperneck 18.732 -1.64226 2.63348
head 6.51622 -1.20945 1.30635
rclavicle -4.21423e-014 -2.06736e-014
rhumerus -27.5363 -6.40663 -83.9078
rradius 45.5096
rwrist 2.99002
rhand -21.9832 -37.5864
rfingers 7.12502
rthumb 4.42494 -67.5202
lclavicle -4.21423e-014 -2.06736e-014
lhumerus -42.0043 29.0039 58.4574
lradius 9.77636
lwrist -53.5933
lhand -34.3825 -18.5202
lfingers 7.12502
lthumb -7.54882 11.3251
rfemur -11.2252 9.17072 14.0411
rtibia 32.0578
rfoot -26.1485 -2.11069
rtoes -38.5817
lfemur -42.4477 -6.66464 -7.38737
ltibia 33.8042
lfoot -16.7736 16.1431
ltoes -66.4273
120
root 10.2434 16.6891 21.481 -163.463 2.87627 180.206
lowerback 3.24724 3.42084 -4.74435
upperback 2.85962 4.57569 0.750124
thorax 0.702763 2.26725 3.28916
lowerneck -5.57057 -0.78859 -3.34514
upperneck 18.9984 -2.12606 2.70749
head 6.75457 -1.39183 1.2298
rclavicle -4.96962e-014 3.18055e-014
rhumerus -26.2406 -5.06196 -84.4028
rradius 46.5206
rwrist 2.4955
rhand -22.1436 -34.8905
rfingers 7.12502
rthumb 4.27014 -64.8275
lclavicle -4.96962e-014 3.18055e-014
lhumerus -42.6191 27.2176 57.6149
lradius 8.53692
lwrist -51.4868
lhand -34.3419 -17.5608
lfingers 7.12502
lthumb -7.50959 12.2859
rfemur -10.0301 8.89181 13.904
rtibia 31.7248
rfoot -25.3258 -1.18763
rtoes -39.278
lfemur -42.492 -6.43804 -7.24273
ltibia 31.8309
lfoot -13.613 16.8677
ltoes -65.872
121
root 10.1651 16.6736 21.1286 -163.302 3.17981 180.305
lowerback 2.59373 3.93672 -5.49106
upperback 2.58424 5.256 0.445531
thorax 0.685736 2.59462 3.3964
lowerneck -5.74915 -1.24221 -3.59616
upperneck 18.7751 -2.80296 3.4329
head 6.74909 -1.65948 1.45381
rclavicle -2.98177e-014 1.07344e-014
rhumerus -25.2947 -3.37308 -84.842
rradius 47.4188
rwrist 2.51661
rhand -21.8208 -35.7804
rfingers 7.12502
rthumb 4.58183 -65.7108
lclavicle -2.98177e-014 1.07344e-014
lhumerus -43.2665 25.5296 56.5755
lradius 7.30775
lwrist -49.336
lhand -34.4645 -16.8083
lfingers 7.12502
lthumb -7.62795 13.0341
rfemur -9.0388 8.66399 13.6712
rtibia 31.7386
rfoot -24.772 -0.736617
rtoes -40.4113
lfemur -43.0077 -5.57336 -7.80212
ltibia 32.6727
lfoot -13.802 16.3957
ltoes -65.6242
122
root 10.0845 16.6451 20.7778 -163.291 3.45245 180.533
lowerback 2.1755 4.43932 -6.01809
upperback 2.35072 5.92563 0.139247
thorax 0.593372 2.92591 3.36796
lowerneck -5.96312 -1.67992 -3.70609
upperneck 18.4667 -3.43742 4.04013
head 6.72389 -1.90308 1.61811
rclavicle 2.29596e-014 5.56597e-015
rhumerus -24.6124 -1.68485 -85.167
rradius 48.3353
rwrist 2.48112
rhand -22.0225 -35.3578
rfingers 7.12502
rthumb 4.38705 -65.2924
lclavicle 2.29596e-014 5.56597e-015
lhumerus -43.6531 23.8859 55.5214
lradius 6.25629
lwrist -46.8167
lhand -33.7056 -15.7232
lfingers 7.12502
lthumb -6.89537 14.1445
rfemur -8.02929 8.50623 13.6516
rtibia 32.0847
rfoot -24.4451 -0.299074
rtoes -40.2503
lfemur -43.244 -4.93089 -8.14384
ltibia 34.1751
lfoot -14.6711 15.4452
ltoes -65.0086
123
root 10.0066 16.6089 20.4455 -163.353 3.9087 180.837
lowerback 1.98955 4.92531 -6.52634
upperback 2.18608 6.56991 -0.106856
thorax 0.436045 3.24925 3.37461
lowerneck -6.27142 -2.04947 -3.91129
upperneck 18.0425 -3.92717 4.59115
head 6.67752 -2.08184 1.78973
rclavicle -3.31473e-014 8.94531e-015
rhumerus -23.9786 0.217251 -85.2991
rradius 49.3625
rwrist 2.18111
rhand -21.9263 -34.9457
rfingers 7.12502
rthumb 4.47989 -64.8783
lclavicle -3.31473e-014 8.94531e-015
lhumerus -43.7657 22.604 54.4691
lradius 5.06085
lwrist -45.1177
lhand -33.46 -15.5869
lfingers 7.12502
lthumb -6.65832 14.2884
rfemur -7.3276 8.58829 13.7163
rtibia 32.8452
rfoot -24.4051 0.444784
rtoes -37.9872
lfemur -42.9859 -4.09223 -8.61295
ltibia 36.4249
lfoot -16.927 13.9409
ltoes -64.3492
124
root 9.9323 16.5674 20.1387 -163.253 4.4328 180.883
lowerback 1.86098 5.3006 -7.25836
upperback 2.02107 7.06601 -0.432031
thorax 0.241934 3.50102 3.41956
lowerneck -6.70783 -2.3658 -4.06455
upperneck 17.6174 -4.31639 5.02406
head 6.64923 -2.21492 1.91988
rclavicle 4.33475e-014 7.05686e-015
rhumerus -23.1963 2.33426 -85.3888
rradius 50.1776
rwrist 1.88703
rhand -22.6905 -33.5037
rfingers 7.12502
rthumb 3.74195 -63.4505
lclavicle 4.33475e-014 7.05686e-015
lhumerus -43.6845 21.6727 53.2982
lradius 4.07325
lwrist -44.6167
lhand -32.9313 -14.0096
lfingers 7.12502
lthumb -6.1479 15.8812
rfemur -7.20358 8.72143 13.4674
rtibia 33.8007
rfoot -24.893 0.822234
rtoes -37.2443
lfemur -42.6829 -3.7028 -9.26771
ltibia 38.2517
lfoot -19.0508 12.8282
ltoes -63.431
125
root 9.85845 16.5287 19.8594 -162.827 4.91701 180.656
lowerback 1.665 5.61576 -8.00559
upperback 1.77797 7.49313 -0.989288
thorax 0.0357182 3.72557 3.23757
lowerneck -7.04552 -2.67728 -3.77028
upperneck 17.1045 -4.71338 5.20716
head 6.56303 -2.34635 1.89493
rclavicle -1.18028e-014 -4.87022e-015
rhumerus -22.3786 3.93238 -85.5434
rradius 50.6886
rwrist 1.90784
rhand -23.0718 -33.466
rfingers 7.12502
rthumb 3.37374 -63.4191
lclavicle -1.18028e-014 -4.87022e-015
lhumerus -43.1292 20.7995 52.0877
lradius 3.30769
lwrist -45.2067
lhand -33.6929 -15.4891
lfingers 7.12502
lthumb -6.88308 14.379
rfemur -7.80836 8.82206 12.8645
rtibia 34.8222
rfoot -25.8508 0.602361
rtoes -37.3144
lfemur -42.7372 -3.85772 -10.0967
ltibia 39.8562
lfoot -20.4516 13.1084
ltoes -63.8668
126
root 9.78615 16.5048 19.6018 -162.079 5.24784 180.36
lowerback 1.21848 5.56171 -8.74314
upperback 1.6031 7.46206 -1.36116
thorax 0.0678744 3.71242 3.29256
lowerneck -7.46049 -2.68824 -3.92749
upperneck 16.6025 -4.59865 5.23924
head 6.47526 -2.26871 1.93752
rclavicle -3.84151e-014 5.94366e-014
rhumerus -21.3978 5.83027 -85.5042
rradius 50.9575
rwrist 2.11143
rhand -23.1083 -32.4163
rfingers 7.12502
rthumb 3.33855 -62.3699
lclavicle -3.84151e-014 5.94366e-014
lhumerus -42.5616 21.0415 50.9405
lradius 2.43956
lwrist -46.5315
lhand -33.9071 -14.5051
lfingers 7.12502
lthumb -7.08987 15.3561
rfemur -9.65976 8.63609 12.1023
rtibia 36.7324
rfoot -26.9805 0.421525
rtoes -38.3783
lfemur -43.165 -4.51885 -10.8037
ltibia 41.1046
lfoot -21.809 13.4077
ltoes -63.8114
127
root 9.73253 16.5266 19.37 -161.883 5.47401 180.324
lowerback 1.62596 5.63956 -9.26369
upperback 1.59352 7.53348 -1.58691
thorax -0.20958 3.76359 3.29116
lowerneck -7.73096 -2.7027 -3.81851
upperneck 15.9382 -4.51461 5.22172
head 6.3056 -2.19726 1.91982
rclavicle 6.64935e-014 0
rhumerus -20.7792 6.72191 -85.2414
rradius 50.7872
rwrist 3.51289
rhand -23.9599 -31.0655
rfingers 7.12502
rthumb 2.51609 -61.0304
lclavicle 6.64935e-014 0
lhumerus -41.411 21.3701 50.1413
lradius 1.86888
lwrist -47.8165
lhand -34.3752 -12.9041
lfingers 7.12502
lthumb -7.5417 16.9414
rfemur -11.2032 8.81424 11.8992
rtibia 38.5713
rfoot -27.9224 0.206703
rtoes -38.2229
lfemur -42.6404 -5.30368 -11.1643
ltibia 41.5612
lfoot -22.9013 13.5126
ltoes -63.5276
128
root 9.68247 16.5647 19.1511 -161.555 5.31792 180.366
lowerback 1.66594 5.61542 -9.71822
upperback 1.80407 7.51621 -1.51937
thorax -0.0729664 3.74414 3.61382
lowerneck -7.21199 -2.92456 -4.21134
upperneck 14.5734 -4.68345 5.5519
head 5.81117 -2.26649 2.08748
rclavicle 3.16068e-014 3.77691e-015
rhumerus -20.3134 7.02856 -84.3123
rradius 50.6635
rwrist 3.39533
rhand -23.9809 -29.7719
rfingers 7.12502
rthumb 2.49577 -59.7371
lclavicle 3.16068e-014 3.77691e-015
lhumerus -39.9012 22.1414 49.9776
lradius 1.73498
lwrist -48.9203
lhand -35.328 -13.6799
lfingers 7.12502
lthumb -8.4613 16.1306
rfemur -13.0187 8.79544 11.8538
rtibia 40.1732
rfoot -29.1675 -0.255938
rtoes -39.9989
lfemur -42.1421 -6.19607 -11.3389
ltibia 41.5314
lfoot -23.5358 13.8369
ltoes -63.732
